<svg xmlns="http://www.w3.org/2000/svg" xmlns:xlink="http://www.w3.org/1999/xlink" width="1000" zoomAndPan="magnify" viewBox="0 0 750 749.999995" height="1000" preserveAspectRatio="xMidYMid meet" version="1.2"><g id="a1beefd281"><rect x="0" width="750" y="0" height="749.999995" style="fill:#ffffff;fill-opacity:1;stroke:none;"/><rect x="0" width="750" y="0" height="749.999995" style="fill:#2dbd98;fill-opacity:1;stroke:none;"/><path style=" stroke:none;fill-rule:nonzero;fill:#0b1f30;fill-opacity:1;" d="M 716.9375 102.375 L 712.296875 98.894531 C 697.214844 86.710938 678.652344 81.492188 661.253906 83.234375 C 642.691406 84.972656 625.871094 93.09375 613.6875 107.59375 L 457.078125 292.050781 L 364.269531 404 L 296.402344 485.785156 L 250 436.480469 L 223.898438 409.21875 L 132.25 313.511719 C 118.910156 299.589844 101.507812 292.628906 82.945312 291.46875 C 65.546875 290.308594 46.984375 297.847656 33.644531 310.609375 L 29.003906 315.25 C 0.578125 341.351562 0 386.597656 26.101562 414.4375 L 116.589844 509.566406 L 142.691406 537.988281 L 247.101562 647.617188 C 259.28125 659.796875 275.523438 667.917969 291.183594 668.5 C 292.34375 668.5 292.34375 668.5 292.921875 668.5 C 294.082031 668.5 294.664062 668.5 296.402344 668.5 C 296.402344 668.5 296.402344 668.5 297.5625 668.5 C 300.464844 668.5 302.785156 668.5 306.265625 668.5 C 324.824219 666.757812 341.648438 658.636719 353.828125 644.136719 L 509.28125 459.683594 L 570.1875 386.015625 L 725.636719 201.5625 C 750 171.980469 746.519531 127.894531 716.9375 102.375 Z M 716.9375 102.375 "/></g></svg>